<mxfile host="app.diagrams.net" modified="2023-12-21T11:00:37.877Z" agent="Mozilla/5.0 (Windows NT 10.0; Win64; x64) AppleWebKit/537.36 (KHTML, like Gecko) Chrome/120.0.0.0 Safari/537.36" etag="-xPiI_wBG0G1ZdhH56sa" version="22.1.11" type="github">
  <diagram name="Страница — 1" id="boksjwtE60Wu9PSS7kzV">
    <mxGraphModel dx="1510" dy="355" grid="1" gridSize="5" guides="1" tooltips="1" connect="1" arrows="1" fold="1" page="1" pageScale="1" pageWidth="827" pageHeight="1169" math="0" shadow="0">
      <root>
        <mxCell id="0" />
        <mxCell id="1" parent="0" />
        <mxCell id="NHULaH70aYGb8acYcq_c-75" style="edgeStyle=orthogonalEdgeStyle;rounded=0;orthogonalLoop=1;jettySize=auto;html=1;entryX=0.5;entryY=1;entryDx=0;entryDy=0;startArrow=classic;startFill=1;" edge="1" parent="1" source="1OqXnXpz8r0vYPGbQrty-51" target="1OqXnXpz8r0vYPGbQrty-76">
          <mxGeometry relative="1" as="geometry">
            <Array as="points">
              <mxPoint x="-705" y="605" />
              <mxPoint x="-415" y="605" />
            </Array>
          </mxGeometry>
        </mxCell>
        <mxCell id="1OqXnXpz8r0vYPGbQrty-51" value="" style="rounded=0;whiteSpace=wrap;html=1;fillColor=none;" parent="1" vertex="1">
          <mxGeometry x="-825" y="245" width="260" height="320" as="geometry" />
        </mxCell>
        <mxCell id="1OqXnXpz8r0vYPGbQrty-54" value="КБМ" style="text;html=1;strokeColor=none;fillColor=none;align=center;verticalAlign=middle;whiteSpace=wrap;rounded=0;" parent="1" vertex="1">
          <mxGeometry x="-625" y="245" width="60" height="30" as="geometry" />
        </mxCell>
        <mxCell id="1OqXnXpz8r0vYPGbQrty-55" value="" style="rounded=0;whiteSpace=wrap;html=1;fillColor=none;" parent="1" vertex="1">
          <mxGeometry x="-625" y="245" width="60" height="30" as="geometry" />
        </mxCell>
        <mxCell id="NHULaH70aYGb8acYcq_c-33" style="edgeStyle=orthogonalEdgeStyle;rounded=0;orthogonalLoop=1;jettySize=auto;html=1;startArrow=classic;startFill=1;" edge="1" parent="1" source="1OqXnXpz8r0vYPGbQrty-56" target="1OqXnXpz8r0vYPGbQrty-57">
          <mxGeometry relative="1" as="geometry" />
        </mxCell>
        <mxCell id="1OqXnXpz8r0vYPGbQrty-56" value="HMI Tractor PTZ&lt;br&gt;16 мс&lt;br&gt;Зависимости:&lt;br&gt;Fundamental Dependencies App&lt;br&gt;Tractor PTZ Parameters&lt;br&gt;J1939 Fault Reg Kit HMI" style="rounded=0;whiteSpace=wrap;html=1;" parent="1" vertex="1">
          <mxGeometry x="-805" y="285" width="180" height="100" as="geometry" />
        </mxCell>
        <mxCell id="1OqXnXpz8r0vYPGbQrty-57" value="M_Unit PTZ&lt;br&gt;10 мс&lt;br&gt;Зависимости:&lt;br&gt;Fundamental Dependencies App&lt;br&gt;Tractor PTZ Parameters&lt;br&gt;J1939 Fault Reg Kit&lt;br&gt;IO3 Units Ref Kit" style="rounded=0;whiteSpace=wrap;html=1;" parent="1" vertex="1">
          <mxGeometry x="-805" y="435" width="180" height="110" as="geometry" />
        </mxCell>
        <mxCell id="1OqXnXpz8r0vYPGbQrty-58" value="Виртуальный CAN&lt;br&gt;Узел 3" style="text;html=1;strokeColor=none;fillColor=none;align=center;verticalAlign=middle;whiteSpace=wrap;rounded=0;" parent="1" vertex="1">
          <mxGeometry x="-715" y="390" width="115" height="45" as="geometry" />
        </mxCell>
        <mxCell id="1OqXnXpz8r0vYPGbQrty-72" value="Узел 0" style="text;html=1;strokeColor=none;fillColor=none;align=center;verticalAlign=middle;whiteSpace=wrap;rounded=0;" parent="1" vertex="1">
          <mxGeometry x="-405.01" y="470" width="80" height="30" as="geometry" />
        </mxCell>
        <mxCell id="1OqXnXpz8r0vYPGbQrty-76" value="" style="rounded=0;whiteSpace=wrap;html=1;fillColor=none;" parent="1" vertex="1">
          <mxGeometry x="-545" y="245" width="259.99" height="320" as="geometry" />
        </mxCell>
        <mxCell id="1OqXnXpz8r0vYPGbQrty-77" value="КВВ1" style="text;html=1;strokeColor=none;fillColor=none;align=center;verticalAlign=middle;whiteSpace=wrap;rounded=0;" parent="1" vertex="1">
          <mxGeometry x="-345.01" y="245" width="60" height="30" as="geometry" />
        </mxCell>
        <mxCell id="1OqXnXpz8r0vYPGbQrty-78" value="" style="rounded=0;whiteSpace=wrap;html=1;fillColor=none;" parent="1" vertex="1">
          <mxGeometry x="-345.01" y="245" width="60" height="30" as="geometry" />
        </mxCell>
        <mxCell id="1OqXnXpz8r0vYPGbQrty-79" value="MCU KBB-35(70)&lt;br&gt;10 мс&lt;br&gt;Зависимости:&lt;br&gt;Fundamental Dependencies App&lt;br&gt;" style="rounded=0;whiteSpace=wrap;html=1;" parent="1" vertex="1">
          <mxGeometry x="-525.01" y="285" width="180" height="100" as="geometry" />
        </mxCell>
        <mxCell id="1OqXnXpz8r0vYPGbQrty-95" style="edgeStyle=orthogonalEdgeStyle;rounded=0;orthogonalLoop=1;jettySize=auto;html=1;exitX=0.5;exitY=1;exitDx=0;exitDy=0;" parent="1" source="1OqXnXpz8r0vYPGbQrty-76" target="1OqXnXpz8r0vYPGbQrty-76" edge="1">
          <mxGeometry relative="1" as="geometry" />
        </mxCell>
        <mxCell id="NHULaH70aYGb8acYcq_c-67" style="edgeStyle=orthogonalEdgeStyle;rounded=0;orthogonalLoop=1;jettySize=auto;html=1;startArrow=classic;startFill=1;" edge="1" parent="1" source="1OqXnXpz8r0vYPGbQrty-103" target="1OqXnXpz8r0vYPGbQrty-51">
          <mxGeometry relative="1" as="geometry" />
        </mxCell>
        <mxCell id="1OqXnXpz8r0vYPGbQrty-103" value="ДИС" style="rounded=0;whiteSpace=wrap;html=1;" parent="1" vertex="1">
          <mxGeometry x="-825" y="85" width="120" height="60" as="geometry" />
        </mxCell>
        <mxCell id="NHULaH70aYGb8acYcq_c-68" style="edgeStyle=orthogonalEdgeStyle;rounded=0;orthogonalLoop=1;jettySize=auto;html=1;entryX=0.5;entryY=0;entryDx=0;entryDy=0;startArrow=classic;startFill=1;" edge="1" parent="1" source="1OqXnXpz8r0vYPGbQrty-104" target="1OqXnXpz8r0vYPGbQrty-51">
          <mxGeometry relative="1" as="geometry" />
        </mxCell>
        <mxCell id="1OqXnXpz8r0vYPGbQrty-104" value="ДВС" style="rounded=0;whiteSpace=wrap;html=1;" parent="1" vertex="1">
          <mxGeometry x="-685" y="85" width="120" height="60" as="geometry" />
        </mxCell>
        <mxCell id="NHULaH70aYGb8acYcq_c-1" value="Artery CAN&lt;br&gt;10 мс&lt;br&gt;Зависимости:&lt;br&gt;Fundamental Dependencies App&lt;br&gt;" style="rounded=0;whiteSpace=wrap;html=1;" vertex="1" parent="1">
          <mxGeometry x="-525.01" y="445" width="180" height="100" as="geometry" />
        </mxCell>
        <mxCell id="NHULaH70aYGb8acYcq_c-12" value="&lt;font style=&quot;font-size: 25px;&quot;&gt;Система управления трактора ПТЗ на базе КБМ и КВВ&lt;/font&gt;" style="text;html=1;strokeColor=none;fillColor=none;align=center;verticalAlign=middle;whiteSpace=wrap;rounded=0;" vertex="1" parent="1">
          <mxGeometry x="-800" width="715" height="30" as="geometry" />
        </mxCell>
        <mxCell id="NHULaH70aYGb8acYcq_c-69" style="edgeStyle=orthogonalEdgeStyle;rounded=0;orthogonalLoop=1;jettySize=auto;html=1;entryX=0.5;entryY=0;entryDx=0;entryDy=0;startArrow=classic;startFill=1;" edge="1" parent="1" source="NHULaH70aYGb8acYcq_c-14" target="1OqXnXpz8r0vYPGbQrty-51">
          <mxGeometry relative="1" as="geometry">
            <Array as="points">
              <mxPoint x="-485" y="195" />
              <mxPoint x="-695" y="195" />
            </Array>
          </mxGeometry>
        </mxCell>
        <mxCell id="NHULaH70aYGb8acYcq_c-14" value="ЭГР" style="rounded=0;whiteSpace=wrap;html=1;" vertex="1" parent="1">
          <mxGeometry x="-545" y="85" width="120" height="60" as="geometry" />
        </mxCell>
        <mxCell id="NHULaH70aYGb8acYcq_c-70" style="edgeStyle=orthogonalEdgeStyle;rounded=0;orthogonalLoop=1;jettySize=auto;html=1;entryX=0.5;entryY=0;entryDx=0;entryDy=0;startArrow=classic;startFill=1;" edge="1" parent="1" source="NHULaH70aYGb8acYcq_c-15" target="1OqXnXpz8r0vYPGbQrty-51">
          <mxGeometry relative="1" as="geometry">
            <Array as="points">
              <mxPoint x="-345" y="195" />
              <mxPoint x="-695" y="195" />
            </Array>
          </mxGeometry>
        </mxCell>
        <mxCell id="NHULaH70aYGb8acYcq_c-73" style="edgeStyle=orthogonalEdgeStyle;rounded=0;orthogonalLoop=1;jettySize=auto;html=1;startArrow=classic;startFill=1;" edge="1" parent="1" source="NHULaH70aYGb8acYcq_c-15" target="NHULaH70aYGb8acYcq_c-20">
          <mxGeometry relative="1" as="geometry" />
        </mxCell>
        <mxCell id="NHULaH70aYGb8acYcq_c-15" value="КПП" style="rounded=0;whiteSpace=wrap;html=1;" vertex="1" parent="1">
          <mxGeometry x="-405" y="85" width="120" height="60" as="geometry" />
        </mxCell>
        <mxCell id="NHULaH70aYGb8acYcq_c-76" style="edgeStyle=orthogonalEdgeStyle;rounded=0;orthogonalLoop=1;jettySize=auto;html=1;entryX=0.5;entryY=1;entryDx=0;entryDy=0;startArrow=classic;startFill=1;" edge="1" parent="1" source="NHULaH70aYGb8acYcq_c-20" target="1OqXnXpz8r0vYPGbQrty-76">
          <mxGeometry relative="1" as="geometry">
            <Array as="points">
              <mxPoint x="-105.00999999999999" y="605" />
              <mxPoint x="-415.01" y="605" />
            </Array>
          </mxGeometry>
        </mxCell>
        <mxCell id="NHULaH70aYGb8acYcq_c-20" value="" style="rounded=0;whiteSpace=wrap;html=1;fillColor=none;" vertex="1" parent="1">
          <mxGeometry x="-264.99" y="245" width="259.99" height="320" as="geometry" />
        </mxCell>
        <mxCell id="NHULaH70aYGb8acYcq_c-21" value="КВВ2" style="text;html=1;strokeColor=none;fillColor=none;align=center;verticalAlign=middle;whiteSpace=wrap;rounded=0;" vertex="1" parent="1">
          <mxGeometry x="-65" y="245" width="60" height="30" as="geometry" />
        </mxCell>
        <mxCell id="NHULaH70aYGb8acYcq_c-22" value="" style="rounded=0;whiteSpace=wrap;html=1;fillColor=none;" vertex="1" parent="1">
          <mxGeometry x="-65" y="245" width="60" height="30" as="geometry" />
        </mxCell>
        <mxCell id="NHULaH70aYGb8acYcq_c-23" value="MCU KBB-35(70)&lt;br&gt;10 мс&lt;br&gt;Зависимости:&lt;br&gt;Fundamental Dependencies App&lt;br&gt;" style="rounded=0;whiteSpace=wrap;html=1;" vertex="1" parent="1">
          <mxGeometry x="-245" y="285" width="180" height="100" as="geometry" />
        </mxCell>
        <mxCell id="NHULaH70aYGb8acYcq_c-24" style="edgeStyle=orthogonalEdgeStyle;rounded=0;orthogonalLoop=1;jettySize=auto;html=1;exitX=0.5;exitY=1;exitDx=0;exitDy=0;" edge="1" parent="1" source="NHULaH70aYGb8acYcq_c-20" target="NHULaH70aYGb8acYcq_c-20">
          <mxGeometry relative="1" as="geometry" />
        </mxCell>
        <mxCell id="NHULaH70aYGb8acYcq_c-26" value="Artery CAN&lt;br&gt;10 мс&lt;br&gt;Зависимости:&lt;br&gt;Fundamental Dependencies App&lt;br&gt;" style="rounded=0;whiteSpace=wrap;html=1;" vertex="1" parent="1">
          <mxGeometry x="-245" y="445" width="180" height="100" as="geometry" />
        </mxCell>
        <mxCell id="NHULaH70aYGb8acYcq_c-43" style="edgeStyle=orthogonalEdgeStyle;rounded=0;orthogonalLoop=1;jettySize=auto;html=1;startArrow=classic;startFill=1;" edge="1" parent="1">
          <mxGeometry relative="1" as="geometry">
            <mxPoint x="-625" y="365" as="sourcePoint" />
            <mxPoint x="-565" y="365" as="targetPoint" />
          </mxGeometry>
        </mxCell>
        <mxCell id="NHULaH70aYGb8acYcq_c-44" style="edgeStyle=orthogonalEdgeStyle;rounded=0;orthogonalLoop=1;jettySize=auto;html=1;startArrow=classic;startFill=1;" edge="1" parent="1">
          <mxGeometry relative="1" as="geometry">
            <mxPoint x="-625" y="325" as="sourcePoint" />
            <mxPoint x="-565" y="325" as="targetPoint" />
          </mxGeometry>
        </mxCell>
        <mxCell id="NHULaH70aYGb8acYcq_c-45" value="Узел 0" style="text;html=1;strokeColor=none;fillColor=none;align=center;verticalAlign=middle;whiteSpace=wrap;rounded=0;" vertex="1" parent="1">
          <mxGeometry x="-635" y="300" width="80" height="30" as="geometry" />
        </mxCell>
        <mxCell id="NHULaH70aYGb8acYcq_c-46" value="Узел 2" style="text;html=1;strokeColor=none;fillColor=none;align=center;verticalAlign=middle;whiteSpace=wrap;rounded=0;" vertex="1" parent="1">
          <mxGeometry x="-635" y="340" width="80" height="30" as="geometry" />
        </mxCell>
        <mxCell id="NHULaH70aYGb8acYcq_c-49" style="edgeStyle=orthogonalEdgeStyle;rounded=0;orthogonalLoop=1;jettySize=auto;html=1;startArrow=classic;startFill=1;" edge="1" parent="1">
          <mxGeometry relative="1" as="geometry">
            <mxPoint x="-625" y="525" as="sourcePoint" />
            <mxPoint x="-565" y="525" as="targetPoint" />
          </mxGeometry>
        </mxCell>
        <mxCell id="NHULaH70aYGb8acYcq_c-50" style="edgeStyle=orthogonalEdgeStyle;rounded=0;orthogonalLoop=1;jettySize=auto;html=1;startArrow=classic;startFill=1;" edge="1" parent="1">
          <mxGeometry relative="1" as="geometry">
            <mxPoint x="-625" y="484.79999999999995" as="sourcePoint" />
            <mxPoint x="-565" y="484.79999999999995" as="targetPoint" />
          </mxGeometry>
        </mxCell>
        <mxCell id="NHULaH70aYGb8acYcq_c-51" value="Узел 0" style="text;html=1;strokeColor=none;fillColor=none;align=center;verticalAlign=middle;whiteSpace=wrap;rounded=0;" vertex="1" parent="1">
          <mxGeometry x="-635" y="460" width="80" height="30" as="geometry" />
        </mxCell>
        <mxCell id="NHULaH70aYGb8acYcq_c-52" value="Узел 2" style="text;html=1;strokeColor=none;fillColor=none;align=center;verticalAlign=middle;whiteSpace=wrap;rounded=0;" vertex="1" parent="1">
          <mxGeometry x="-635" y="500" width="80" height="30" as="geometry" />
        </mxCell>
        <mxCell id="NHULaH70aYGb8acYcq_c-55" style="edgeStyle=orthogonalEdgeStyle;rounded=0;orthogonalLoop=1;jettySize=auto;html=1;startArrow=classic;startFill=1;" edge="1" parent="1">
          <mxGeometry relative="1" as="geometry">
            <mxPoint x="-65" y="525" as="sourcePoint" />
            <mxPoint x="-5" y="525" as="targetPoint" />
          </mxGeometry>
        </mxCell>
        <mxCell id="NHULaH70aYGb8acYcq_c-56" style="edgeStyle=orthogonalEdgeStyle;rounded=0;orthogonalLoop=1;jettySize=auto;html=1;startArrow=classic;startFill=1;" edge="1" parent="1">
          <mxGeometry relative="1" as="geometry">
            <mxPoint x="-65" y="484.79999999999995" as="sourcePoint" />
            <mxPoint x="-5" y="484.79999999999995" as="targetPoint" />
          </mxGeometry>
        </mxCell>
        <mxCell id="NHULaH70aYGb8acYcq_c-57" value="Узел 0" style="text;html=1;strokeColor=none;fillColor=none;align=center;verticalAlign=middle;whiteSpace=wrap;rounded=0;" vertex="1" parent="1">
          <mxGeometry x="-70" y="460" width="60" height="30" as="geometry" />
        </mxCell>
        <mxCell id="NHULaH70aYGb8acYcq_c-58" value="Узел 2" style="text;html=1;strokeColor=none;fillColor=none;align=center;verticalAlign=middle;whiteSpace=wrap;rounded=0;" vertex="1" parent="1">
          <mxGeometry x="-67.5" y="500" width="60" height="30" as="geometry" />
        </mxCell>
        <mxCell id="NHULaH70aYGb8acYcq_c-60" style="edgeStyle=orthogonalEdgeStyle;rounded=0;orthogonalLoop=1;jettySize=auto;html=1;startArrow=classic;startFill=1;" edge="1" parent="1">
          <mxGeometry relative="1" as="geometry">
            <mxPoint x="-345.01" y="484.79999999999995" as="sourcePoint" />
            <mxPoint x="-285.01" y="484.79999999999995" as="targetPoint" />
          </mxGeometry>
        </mxCell>
        <mxCell id="NHULaH70aYGb8acYcq_c-61" value="Узел 0" style="text;html=1;strokeColor=none;fillColor=none;align=center;verticalAlign=middle;whiteSpace=wrap;rounded=0;" vertex="1" parent="1">
          <mxGeometry x="-355.01" y="460" width="80" height="30" as="geometry" />
        </mxCell>
        <mxCell id="NHULaH70aYGb8acYcq_c-63" style="edgeStyle=orthogonalEdgeStyle;rounded=0;orthogonalLoop=1;jettySize=auto;html=1;startArrow=classic;startFill=1;" edge="1" parent="1">
          <mxGeometry relative="1" as="geometry">
            <mxPoint x="-65" y="344.79999999999995" as="sourcePoint" />
            <mxPoint x="-5" y="344.79999999999995" as="targetPoint" />
          </mxGeometry>
        </mxCell>
        <mxCell id="NHULaH70aYGb8acYcq_c-64" value="Узел 0" style="text;html=1;strokeColor=none;fillColor=none;align=center;verticalAlign=middle;whiteSpace=wrap;rounded=0;" vertex="1" parent="1">
          <mxGeometry x="-70" y="320" width="65" height="30" as="geometry" />
        </mxCell>
        <mxCell id="NHULaH70aYGb8acYcq_c-65" style="edgeStyle=orthogonalEdgeStyle;rounded=0;orthogonalLoop=1;jettySize=auto;html=1;startArrow=classic;startFill=1;" edge="1" parent="1">
          <mxGeometry relative="1" as="geometry">
            <mxPoint x="-345.01" y="344.79999999999995" as="sourcePoint" />
            <mxPoint x="-285.01" y="344.79999999999995" as="targetPoint" />
          </mxGeometry>
        </mxCell>
        <mxCell id="NHULaH70aYGb8acYcq_c-66" value="Узел 0" style="text;html=1;strokeColor=none;fillColor=none;align=center;verticalAlign=middle;whiteSpace=wrap;rounded=0;" vertex="1" parent="1">
          <mxGeometry x="-355.01" y="320" width="80" height="30" as="geometry" />
        </mxCell>
        <mxCell id="NHULaH70aYGb8acYcq_c-71" value="Узел 2 - CAN2 J1939 250 кб/с" style="text;html=1;strokeColor=none;fillColor=none;align=center;verticalAlign=middle;whiteSpace=wrap;rounded=0;" vertex="1" parent="1">
          <mxGeometry x="-660" y="195" width="225" height="30" as="geometry" />
        </mxCell>
        <mxCell id="NHULaH70aYGb8acYcq_c-74" value="Узел 2 - Диагностическая шина КПП 250 кб/с" style="text;html=1;strokeColor=none;fillColor=none;align=center;verticalAlign=middle;whiteSpace=wrap;rounded=0;" vertex="1" parent="1">
          <mxGeometry x="-285" y="90" width="275" height="30" as="geometry" />
        </mxCell>
        <mxCell id="NHULaH70aYGb8acYcq_c-77" value="Узел 0 - CAN1 ЕСКУ 500 кб/с" style="text;html=1;strokeColor=none;fillColor=none;align=center;verticalAlign=middle;whiteSpace=wrap;rounded=0;" vertex="1" parent="1">
          <mxGeometry x="-520.01" y="615" width="225" height="30" as="geometry" />
        </mxCell>
      </root>
    </mxGraphModel>
  </diagram>
</mxfile>
